<svg width="24" height="24" viewBox="0 0 24 24" fill="none" xmlns="http://www.w3.org/2000/svg">
<path d="M16.7122 12.2933C16.3212 11.9023 15.6892 11.9023 15.2982 12.2933L13.7042 13.8872C12.9652 13.6672 11.5862 13.1672 10.7122 12.2933C9.83822 11.4193 9.33822 10.0402 9.11822 9.30125L10.7122 7.70725C11.1032 7.31625 11.1032 6.68425 10.7122 6.29325L6.71222 2.29325C6.32122 1.90225 5.68922 1.90225 5.29822 2.29325L2.58622 5.00525C2.20622 5.38525 1.99222 5.90725 2.00022 6.44025C2.02322 7.86425 2.40022 12.8103 6.29822 16.7083C10.1962 20.6063 15.1422 20.9823 16.5672 21.0063C16.5722 21.0063 16.5902 21.0063 16.5952 21.0063C17.1232 21.0063 17.6222 20.7983 18.0002 20.4202L20.7122 17.7083C21.1032 17.3173 21.1032 16.6853 20.7122 16.2943L16.7122 12.2933ZM16.5852 19.0052C15.3372 18.9842 11.0672 18.6493 7.71222 15.2933C4.34622 11.9272 4.02022 7.64225 4.00022 6.41925L6.00522 4.41425L8.59122 7.00025L7.29822 8.29325C7.05922 8.53125 6.95722 8.87525 7.02622 9.20525C7.05022 9.32025 7.63722 12.0472 9.29722 13.7072C10.9572 15.3672 13.6842 15.9542 13.7992 15.9782C14.1322 16.0492 14.4732 15.9462 14.7112 15.7072L16.0052 14.4142L18.5912 17.0002L16.5852 19.0052Z" fill="#222222"/>
</svg>
