<svg width="24" height="24" viewBox="0 0 24 24" fill="none" xmlns="http://www.w3.org/2000/svg">
<path d="M4.707 21C5.085 21.378 5.587 21.586 6.121 21.586C6.655 21.586 7.157 21.378 7.535 21L11.871 16.664C12.587 16.885 13.33 16.997 14.088 16.997C16.091 16.997 17.975 16.218 19.39 14.802C21.536 12.655 22.177 9.453 21.022 6.644L20.452 5.256L16.208 9.499L14.087 7.377L18.33 3.134L16.941 2.563C16.031 2.189 15.07 2 14.084 2C12.081 2 10.198 2.78 8.783 4.196C6.798 6.18 6.101 9.068 6.921 11.714L2.585 16.05C1.805 16.829 1.805 18.099 2.585 18.878L4.707 21ZM9.255 12.209L9.001 11.593C8.153 9.532 8.623 7.183 10.197 5.61C11.235 4.572 12.615 4 14.084 4C14.261 4 14.436 4.008 14.61 4.025L11.257 7.378L16.206 12.328L19.561 8.973C19.717 10.581 19.158 12.204 17.974 13.389C16.424 14.939 14.01 15.416 11.99 14.585L11.375 14.33L6.121 19.586H6.122L6.121 20.586V19.586L3.999 17.464L9.255 12.209Z" fill="#222222"/>
</svg>
