<svg width="24" height="24" viewBox="0 0 24 24" fill="none" xmlns="http://www.w3.org/2000/svg">
<path d="M20.5631 2.17356C20.2711 1.97456 19.8961 1.94456 19.5741 2.09456L2.57408 10.0946C2.21908 10.2626 1.99508 10.6216 2.00008 11.0136C2.00608 11.4056 2.24008 11.7586 2.60008 11.9156L8.00008 14.2786V21.0006L13.8361 16.8326L18.6001 18.9166C18.7281 18.9736 18.8651 19.0006 19.0001 19.0006C19.1811 19.0006 19.3601 18.9516 19.5201 18.8546C19.7981 18.6856 19.9771 18.3916 19.9991 18.0666L20.9991 3.06656C21.0211 2.71256 20.8561 2.37356 20.5631 2.17356ZM18.0971 16.5136L12.8281 14.2076L16.0001 8.00056L8.35108 12.2506L5.41908 10.9676L18.8901 4.62756L18.0971 16.5136Z" fill="#222222"/>
</svg>
