<svg width="24" height="24" viewBox="0 0 24 24" fill="none" xmlns="http://www.w3.org/2000/svg">
<path d="M20 2H6.693C5.864 2 5.112 2.521 4.82 3.298L2.063 10.649C2.021 10.761 2 10.88 2 11V13C2 14.103 2.897 15 4 15H9.612L8.49 18.367C8.287 18.975 8.389 19.649 8.764 20.169C9.14 20.689 9.746 21 10.388 21H12C12.297 21 12.578 20.868 12.769 20.64L17.469 15H20C21.103 15 22 14.103 22 13V4C22 2.897 21.103 2 20 2ZM11.531 19H10.386L11.948 14.316C12.051 14.011 11.999 13.676 11.811 13.415C11.623 13.154 11.321 13 11 13H4V11.181L6.693 4H16V13.638L11.531 19ZM18 13V4H20L20.001 13H18Z" fill="#222222"/>
</svg>
