<svg width="24" height="24" viewBox="0 0 24 24" fill="none" xmlns="http://www.w3.org/2000/svg">
<path d="M9 6.5C9 4.57 7.43 3 5.5 3C3.57 3 2 4.57 2 6.5C2 8.43 3.57 10 5.5 10C6.085 10 6.628 9.842 7.113 9.587L9.47 12.115L7.152 14.433C6.658 14.166 6.101 14 5.5 14C3.57 14 2 15.57 2 17.5C2 19.43 3.57 21 5.5 21C7.43 21 9 19.43 9 17.5C9 16.899 8.834 16.342 8.566 15.848L10.835 13.58L16 19.121C16.563 19.684 17.326 20 18.121 20H21L8.35 8.518C8.756 7.946 9 7.253 9 6.5ZM5.5 8C4.673 8 4 7.327 4 6.5C4 5.673 4.673 5 5.5 5C6.327 5 7 5.673 7 6.5C7 7.327 6.327 8 5.5 8ZM5.5 19C4.673 19 4 18.327 4 17.5C4 16.673 4.673 16 5.5 16C6.327 16 7 16.673 7 17.5C7 18.327 6.327 19 5.5 19Z" fill="#222222"/>
<path d="M16 4.879L12.293 9.293L13.707 10.707L21 4H18.121C17.326 4 16.563 4.316 16 4.879Z" fill="#222222"/>
</svg>
