<svg width="24" height="24" viewBox="0 0 24 24" fill="none" xmlns="http://www.w3.org/2000/svg">
<path d="M21.447 6.10575L15.447 3.10575C15.166 2.96475 14.834 2.96475 14.552 3.10575L9 5.88275L3.447 3.10575C3.137 2.95175 2.768 2.96675 2.474 3.14975C2.18 3.33275 2 3.65375 2 4.00075V17.0007C2 17.3797 2.214 17.7257 2.553 17.8958L8.553 20.8958C8.834 21.0368 9.166 21.0368 9.448 20.8958L15 18.1187L20.553 20.8947C20.694 20.9657 20.847 21.0007 21 21.0007C21.183 21.0007 21.365 20.9508 21.525 20.8517C21.82 20.6687 22 20.3477 22 20.0007V7.00075C22 6.62175 21.786 6.27575 21.447 6.10575ZM10 7.61875L14 5.61875V16.3827L10 18.3827V7.61875ZM4 5.61875L8 7.61875V18.3827L4 16.3827V5.61875ZM20 18.3827L16 16.3827V5.61875L20 7.61875V18.3827Z" fill="#222222"/>
</svg>
