<svg width="24" height="24" viewBox="0 0 24 24" fill="none" xmlns="http://www.w3.org/2000/svg">
<path d="M12 9C10.358 9 9 10.359 9 12C9 13.642 10.358 15 12 15C13.641 15 15 13.642 15 12C15 10.359 13.641 9 12 9Z" fill="#222222"/>
<path d="M12.054 5C4.421 5 2.127 11.617 2.106 11.684L2 12L2.105 12.316C2.127 12.383 4.421 19 12.054 19C19.687 19 21.981 12.383 22.002 12.316L22.108 12L22.003 11.684C21.981 11.617 19.687 5 12.054 5ZM12.054 17C6.703 17 4.63 13.154 4.128 12C4.632 10.842 6.706 7 12.054 7C17.405 7 19.478 10.846 19.98 12C19.476 13.158 17.402 17 12.054 17Z" fill="#222222"/>
</svg>
