<svg width="24" height="24" viewBox="0 0 24 24" fill="none" xmlns="http://www.w3.org/2000/svg">
<path d="M12.4231 16C14.6291 16 16.4231 14.206 16.4231 12C16.4231 9.794 14.6291 8 12.4231 8C10.2171 8 8.4231 9.794 8.4231 12C8.4231 14.206 10.2171 16 12.4231 16ZM12.4231 10C13.5071 10 14.4231 10.916 14.4231 12C14.4231 13.084 13.5071 14 12.4231 14C11.3391 14 10.4231 13.084 10.4231 12C10.4231 10.916 11.3391 10 12.4231 10Z" fill="#222222"/>
<path d="M3.26808 16.136L4.26808 17.866C4.79908 18.783 6.07708 19.127 6.99808 18.596L7.52708 18.29C8.10908 18.747 8.74808 19.122 9.42308 19.402V20C9.42308 21.103 10.3201 22 11.4231 22H13.4231C14.5261 22 15.4231 21.103 15.4231 20V19.402C16.0981 19.122 16.7371 18.747 17.3191 18.291L17.8481 18.597C18.7711 19.127 20.0461 18.785 20.5791 17.866L21.5781 16.137C22.1301 15.182 21.8021 13.956 20.8471 13.405L20.3421 13.113C20.3961 12.742 20.4231 12.371 20.4231 12C20.4231 11.629 20.3961 11.257 20.3421 10.889L20.8471 10.597C21.8021 10.045 22.1301 8.82 21.5781 7.865L20.5791 6.136C20.0481 5.216 18.7711 4.871 17.8481 5.404L17.3191 5.71C16.7371 5.253 16.0981 4.878 15.4231 4.598V4C15.4231 2.897 14.5261 2 13.4231 2H11.4231C10.3201 2 9.42308 2.897 9.42308 4V4.598C8.74808 4.878 8.10908 5.253 7.52708 5.709L6.99808 5.403C6.07408 4.872 4.79808 5.216 4.26708 6.135L3.26808 7.864C2.71608 8.819 3.04408 10.045 3.99908 10.596L4.50408 10.888C4.45008 11.257 4.42308 11.629 4.42308 12C4.42308 12.371 4.45008 12.742 4.50408 13.111L3.99908 13.403C3.04408 13.955 2.71608 15.181 3.26808 16.136ZM6.59408 13.378C6.48108 12.925 6.42308 12.461 6.42308 12C6.42308 11.538 6.48108 11.074 6.59308 10.622C6.70108 10.189 6.51008 9.737 6.12308 9.514L5.00008 8.864L5.99808 7.135L7.14308 7.797C7.52708 8.018 8.01008 7.962 8.33108 7.655C9.01408 7.008 9.83808 6.524 10.7151 6.256C11.1361 6.128 11.4231 5.739 11.4231 5.3V4H13.4231V5.3C13.4231 5.739 13.7101 6.128 14.1311 6.256C15.0081 6.525 15.8321 7.008 16.5151 7.655C16.8361 7.962 17.3211 8.017 17.7031 7.797L18.8471 7.136L19.8471 8.865L18.7231 9.514C18.3361 9.738 18.1451 10.19 18.2531 10.622C18.3651 11.074 18.4231 11.538 18.4231 12C18.4231 12.461 18.3651 12.925 18.2521 13.378C18.1451 13.811 18.3361 14.263 18.7231 14.486L19.8461 15.135L18.8481 16.864L17.7031 16.203C17.3201 15.982 16.8361 16.037 16.5151 16.345C15.8321 16.992 15.0081 17.476 14.1311 17.744C13.7101 17.872 13.4231 18.261 13.4231 18.7L13.4251 20H11.4231V18.7C11.4231 18.261 11.1361 17.872 10.7151 17.744C9.83808 17.475 9.01408 16.992 8.33108 16.345C8.14108 16.163 7.89308 16.07 7.64308 16.07C7.47108 16.07 7.29908 16.114 7.14308 16.204L5.99908 16.866L4.99908 15.137L6.12308 14.486C6.51008 14.263 6.70108 13.811 6.59408 13.378Z" fill="#222222"/>
</svg>
