<svg width="24" height="24" viewBox="0 0 24 24" fill="none" xmlns="http://www.w3.org/2000/svg">
<path d="M11.9998 18.707C12.9458 18.707 13.8097 18.604 14.5977 18.426L12.8407 16.669C12.5677 16.69 12.2908 16.707 11.9998 16.707C6.64875 16.707 4.57575 12.861 4.07375 11.707C4.27775 11.237 4.74775 10.326 5.58175 9.41L4.18375 8.012C2.64575 9.679 2.06275 11.358 2.05175 11.391C1.98275 11.596 1.98275 11.819 2.05175 12.024C2.07275 12.09 4.36675 18.707 11.9998 18.707ZM11.9998 4.707C10.1628 4.707 8.65375 5.103 7.39575 5.688L3.70675 2L2.29275 3.414L20.2927 21.414L21.7068 20L18.3878 16.681C21.0018 14.73 21.9347 12.066 21.9487 12.024C22.0177 11.819 22.0177 11.596 21.9487 11.391C21.9268 11.324 19.6327 4.707 11.9998 4.707ZM16.9718 15.265L14.6918 12.985C14.8818 12.595 14.9998 12.166 14.9998 11.707C14.9998 10.066 13.6407 8.707 11.9998 8.707C11.5408 8.707 11.1117 8.825 10.7227 9.016L8.91475 7.208C9.79575 6.9 10.8138 6.707 11.9998 6.707C17.3507 6.707 19.4237 10.553 19.9258 11.707C19.6238 12.399 18.7598 14.049 16.9718 15.265Z" fill="#222222"/>
</svg>
