<svg width="24" height="24" viewBox="0 0 24 24" fill="none" xmlns="http://www.w3.org/2000/svg">
<path d="M20.772 9.156L19.404 5.051C18.995 3.824 17.852 3 16.559 3H7.441C6.148 3 5.005 3.824 4.596 5.051L3.228 9.156C2.508 9.459 2 10.171 2 11V16C2 16.753 2.423 17.402 3.039 17.743C3.026 17.809 3 17.869 3 17.938V20C3 20.553 3.447 21 4 21H5C5.553 21 6 20.553 6 20V18H18V20C18 20.553 18.447 21 19 21H20C20.553 21 21 20.553 21 20V17.938C21 17.869 20.974 17.808 20.961 17.743C21.577 17.402 22 16.753 22 16V11C22 10.171 21.492 9.459 20.772 9.156ZM4 16V11H20L20.002 16H4ZM7.441 5H16.558C16.989 5 17.371 5.274 17.507 5.684L18.613 9H5.387L6.492 5.684C6.629 5.274 7.011 5 7.441 5Z" fill="#222222"/>
<path d="M6.5 15C7.32843 15 8 14.3284 8 13.5C8 12.6716 7.32843 12 6.5 12C5.67157 12 5 12.6716 5 13.5C5 14.3284 5.67157 15 6.5 15Z" fill="#222222"/>
<path d="M17.5 15C18.3284 15 19 14.3284 19 13.5C19 12.6716 18.3284 12 17.5 12C16.6716 12 16 12.6716 16 13.5C16 14.3284 16.6716 15 17.5 15Z" fill="#222222"/>
</svg>
