<svg width="24" height="24" viewBox="0 0 24 24" fill="none" xmlns="http://www.w3.org/2000/svg">
<path d="M17 7C14.906 7 13.389 8.567 11.999 10.346C10.609 8.567 9.093 7 7 7C4.243 7 2 9.243 2 12C2 13.334 2.519 14.589 3.459 15.534C4.402 16.479 5.656 17 6.99 17C6.99 17 7.001 17 7.002 17C9.091 16.995 10.607 15.428 11.998 13.649C13.389 15.431 14.906 17 17 17C19.757 17 22 14.757 22 12C22 9.243 19.757 7 17 7ZM6.998 15L6.99 16V15C6.191 15 5.44 14.688 4.876 14.122C4.311 13.555 4 12.801 4 12C4 10.346 5.346 9 7 9C8.33 9 9.56 10.438 10.746 11.998C9.558 13.557 8.328 14.997 6.998 15ZM17 15C15.67 15 14.439 13.56 13.251 11.998C14.438 10.438 15.668 9 17 9C18.654 9 20 10.346 20 12C20 13.654 18.654 15 17 15Z" fill="#222222"/>
</svg>
