<svg width="24" height="24" viewBox="0 0 24 24" fill="none" xmlns="http://www.w3.org/2000/svg">
<path d="M20 4H4C2.897 4 2 4.897 2 6V16C2 17.103 2.897 18 4 18H7V23.081L13.351 18H20C21.103 18 22 17.103 22 16V6C22 4.897 21.103 4 20 4ZM20 16H12.649L9 18.919V16H4V6H20V16Z" fill="#222222"/>
<path d="M9.5 13C10.3284 13 11 12.3284 11 11.5C11 10.6716 10.3284 10 9.5 10C8.67157 10 8 10.6716 8 11.5C8 12.3284 8.67157 13 9.5 13Z" fill="#222222"/>
<path d="M14.5 13C15.3284 13 16 12.3284 16 11.5C16 10.6716 15.3284 10 14.5 10C13.6716 10 13 10.6716 13 11.5C13 12.3284 13.6716 13 14.5 13Z" fill="#222222"/>
</svg>
