<svg width="24" height="24" viewBox="0 0 24 24" fill="none" xmlns="http://www.w3.org/2000/svg">
<path d="M21.0328 6.90413C20.9998 6.56213 20.7938 6.26113 20.4858 6.10713L12.5128 2.10713C12.2318 1.96413 11.8998 1.96513 11.6178 2.10513L3.59076 6.10513C3.29376 6.25513 3.08876 6.54213 3.04676 6.87213C3.03376 6.96913 1.90176 16.6131 11.5878 21.8801C11.7358 21.9611 11.9008 22.0011 12.0648 22.0011C12.2348 22.0011 12.4048 21.9581 12.5568 21.8711C21.8638 16.6121 21.0708 7.29813 21.0328 6.90413ZM12.0558 19.8481C5.19576 15.8381 4.91576 9.49613 4.99276 7.64313L12.0638 4.12013L19.0618 7.63113C19.0668 9.50113 18.5808 15.8741 12.0558 19.8481Z" fill="#222222"/>
</svg>
