<svg width="24" height="24" viewBox="0 0 24 24" fill="none" xmlns="http://www.w3.org/2000/svg">
<path d="M3 6L6 2H18L21 6M3 6V20C3 20.5304 3.21071 21.0391 3.58579 21.4142C3.96086 21.7893 4.46957 22 5 22H19C19.5304 22 20.0391 21.7893 20.4142 21.4142C20.7893 21.0391 21 20.5304 21 20V6M3 6H21M16 9.99988C16 11.0607 15.5786 12.0782 14.8284 12.8283C14.0783 13.5785 13.0608 13.9999 12 13.9999C10.9391 13.9999 9.9217 13.5785 9.17156 12.8283C8.42141 12.0782 7.99998 11.0607 7.99998 9.99988" stroke="#222222" stroke-width="2" stroke-linecap="round" stroke-linejoin="round"/>
</svg>
