<svg width="24" height="24" viewBox="0 0 24 24" fill="none" xmlns="http://www.w3.org/2000/svg">
<path d="M21 7H7.462L5.91 3.586C5.748 3.229 5.392 3 5 3H2V5H4.356L9.09 15.414C9.252 15.771 9.608 16 10 16H18C18.4 16 18.762 15.762 18.919 15.394L21.919 8.394C22.052 8.085 22.02 7.731 21.835 7.45C21.649 7.169 21.336 7 21 7ZM17.341 14H10.644L8.371 9H19.483L17.341 14Z" fill="#222222"/>
<path d="M10.5 20C11.3284 20 12 19.3284 12 18.5C12 17.6716 11.3284 17 10.5 17C9.67157 17 9 17.6716 9 18.5C9 19.3284 9.67157 20 10.5 20Z" fill="#222222"/>
<path d="M17.5 20C18.3284 20 19 19.3284 19 18.5C19 17.6716 18.3284 17 17.5 17C16.6716 17 16 17.6716 16 18.5C16 19.3284 16.6716 20 17.5 20Z" fill="#222222"/>
</svg>
